<?xml version="1.0" encoding="UTF-8" standalone="no"?>
<!DOCTYPE svg PUBLIC "-//W3C//DTD SVG 1.1//EN" "http://www.w3.org/Graphics/SVG/1.1/DTD/svg11.dtd">
<svg width="100%" height="100%" viewBox="0 0 957 676" version="1.1" xmlns="http://www.w3.org/2000/svg"
xmlns:xlink="http://www.w3.org/1999/xlink" xml:space="preserve" style="fill-rule:evenodd;clip-rule:evenodd;">
    <g transform="matrix(4.16667,0,0,4.16667,-887.763,-859.78)">
        <g id="Ebene_2">
            <g transform="matrix(1.0638,0,0,1,295.259,320.858)">
                <g transform="matrix(20.9563,0,0,20.9563,0,0)">
                    <path d="M0.09,-0L0.09,-0.754L0.249,-0.754C0.324,-0.754 0.384,-0.746 0.428,-0.731C0.475,-0.717 0.518,-0.692 0.557,-0.657C0.634,-0.586 0.673,-0.493 0.673,-0.377C0.673,-0.261 0.633,-0.167 0.552,-0.096C0.511,-0.06 0.468,-0.035 0.424,-0.021C0.382,-0.007 0.323,-0 0.247,-0L0.09,-0ZM0.204,-0.107L0.255,-0.107C0.306,-0.107 0.349,-0.112 0.383,-0.123C0.417,-0.134 0.447,-0.153 0.475,-0.177C0.531,-0.228 0.559,-0.295 0.559,-0.377C0.559,-0.46 0.531,-0.527 0.476,-0.578C0.426,-0.624 0.352,-0.647 0.255,-0.647L0.204,-0.647L0.204,-0.107Z" style="fill-rule:nonzero;"/>
                </g>
                <g transform="matrix(20.9563,0,0,20.9563,15.4128,0)">
                    <path d="M0.053,-0.38C0.053,-0.486 0.092,-0.578 0.169,-0.654C0.247,-0.73 0.34,-0.768 0.449,-0.768C0.556,-0.768 0.648,-0.73 0.725,-0.653C0.802,-0.576 0.841,-0.484 0.841,-0.376C0.841,-0.268 0.802,-0.176 0.725,-0.1C0.647,-0.024 0.553,0.014 0.443,0.014C0.346,0.014 0.258,-0.02 0.181,-0.087C0.095,-0.162 0.053,-0.26 0.053,-0.38ZM0.167,-0.379C0.167,-0.296 0.195,-0.227 0.251,-0.173C0.307,-0.12 0.371,-0.093 0.444,-0.093C0.523,-0.093 0.59,-0.12 0.645,-0.175C0.699,-0.23 0.726,-0.298 0.726,-0.377C0.726,-0.457 0.699,-0.525 0.646,-0.579C0.592,-0.634 0.526,-0.661 0.447,-0.661C0.369,-0.661 0.303,-0.634 0.249,-0.579C0.194,-0.525 0.167,-0.458 0.167,-0.379Z" style="fill-rule:nonzero;"/>
                </g>
                <g transform="matrix(1,0,0,1,35.995,0)">
                    <g transform="matrix(20.9563,0,0,20.9563,0,0)">
                        <path d="M0.647,-0.713L0.647,-0.579C0.582,-0.634 0.514,-0.661 0.443,-0.661C0.366,-0.661 0.301,-0.633 0.248,-0.578C0.194,-0.522 0.167,-0.455 0.167,-0.375C0.167,-0.295 0.194,-0.229 0.248,-0.174C0.301,-0.12 0.366,-0.093 0.444,-0.093C0.484,-0.093 0.518,-0.099 0.546,-0.112C0.562,-0.119 0.578,-0.128 0.594,-0.139C0.611,-0.15 0.629,-0.163 0.647,-0.179L0.647,-0.042C0.582,-0.005 0.514,0.014 0.442,0.014C0.335,0.014 0.243,-0.024 0.167,-0.099C0.091,-0.175 0.053,-0.266 0.053,-0.374C0.053,-0.47 0.084,-0.555 0.148,-0.63C0.226,-0.722 0.327,-0.769 0.451,-0.769C0.519,-0.769 0.584,-0.75 0.647,-0.713Z" style="fill-rule:nonzero;"/>
                    </g>
                </g>
                <g transform="matrix(1,0,0,1,51.728,0)">
                    <g transform="matrix(20.9563,0,0,20.9563,0,0)">
                        <path d="M0.298,-0.647L0.298,-0L0.185,-0L0.185,-0.647L0.011,-0.647L0.011,-0.754L0.471,-0.754L0.471,-0.647L0.298,-0.647Z" style="fill-rule:nonzero;"/>
                    </g>
                </g>
                <g transform="matrix(1,0,0,1,62.36,0)">
                    <g transform="matrix(20.9563,0,0,20.9563,0,0)">
                        <path d="M0.053,-0.38C0.053,-0.486 0.092,-0.578 0.169,-0.654C0.247,-0.73 0.34,-0.768 0.449,-0.768C0.556,-0.768 0.648,-0.73 0.725,-0.653C0.802,-0.576 0.841,-0.484 0.841,-0.376C0.841,-0.268 0.802,-0.176 0.725,-0.1C0.647,-0.024 0.553,0.014 0.443,0.014C0.346,0.014 0.258,-0.02 0.181,-0.087C0.095,-0.162 0.053,-0.26 0.053,-0.38ZM0.167,-0.379C0.167,-0.296 0.195,-0.227 0.251,-0.173C0.307,-0.12 0.371,-0.093 0.444,-0.093C0.523,-0.093 0.59,-0.12 0.645,-0.175C0.699,-0.23 0.726,-0.298 0.726,-0.377C0.726,-0.457 0.699,-0.525 0.646,-0.579C0.592,-0.634 0.526,-0.661 0.447,-0.661C0.369,-0.661 0.303,-0.634 0.249,-0.579C0.194,-0.525 0.167,-0.458 0.167,-0.379Z" style="fill-rule:nonzero;"/>
                    </g>
                    <g transform="matrix(20.9563,0,0,20.9563,18.9226,0)">
                        <path d="M0.346,-0.321L0.579,-0L0.44,-0L0.225,-0.309L0.204,-0.309L0.204,-0L0.09,-0L0.09,-0.754L0.224,-0.754C0.323,-0.754 0.395,-0.735 0.439,-0.698C0.488,-0.656 0.513,-0.601 0.513,-0.533C0.513,-0.479 0.497,-0.433 0.467,-0.395C0.436,-0.357 0.396,-0.332 0.346,-0.321ZM0.204,-0.408L0.24,-0.408C0.348,-0.408 0.402,-0.449 0.402,-0.531C0.402,-0.608 0.349,-0.647 0.245,-0.647L0.204,-0.647L0.204,-0.408Z" style="fill-rule:nonzero;"/>
                    </g>
                </g>
                <g transform="matrix(1,0,0,1,95.757,0)">
                    <g transform="matrix(20.9563,0,0,20.9563,0,0)">
                        <path d="M0.517,-0.642L0.424,-0.587C0.407,-0.617 0.391,-0.636 0.375,-0.646C0.359,-0.656 0.338,-0.661 0.312,-0.661C0.28,-0.661 0.254,-0.652 0.233,-0.634C0.213,-0.617 0.202,-0.595 0.202,-0.568C0.202,-0.531 0.229,-0.501 0.284,-0.479L0.359,-0.448C0.421,-0.424 0.465,-0.393 0.494,-0.358C0.522,-0.322 0.536,-0.278 0.536,-0.227C0.536,-0.157 0.513,-0.1 0.467,-0.055C0.42,-0.009 0.362,0.014 0.293,0.014C0.228,0.014 0.174,-0.006 0.131,-0.044C0.089,-0.083 0.063,-0.138 0.053,-0.208L0.168,-0.233C0.173,-0.189 0.182,-0.159 0.195,-0.142C0.219,-0.109 0.253,-0.093 0.298,-0.093C0.333,-0.093 0.363,-0.105 0.386,-0.128C0.41,-0.152 0.421,-0.182 0.421,-0.219C0.421,-0.233 0.419,-0.247 0.415,-0.259C0.411,-0.271 0.405,-0.282 0.396,-0.293C0.388,-0.303 0.376,-0.313 0.363,-0.322C0.349,-0.33 0.333,-0.339 0.314,-0.347L0.241,-0.377C0.138,-0.421 0.086,-0.485 0.086,-0.569C0.086,-0.625 0.108,-0.673 0.151,-0.711C0.195,-0.749 0.249,-0.769 0.313,-0.769C0.4,-0.769 0.468,-0.726 0.517,-0.642Z" style="fill-rule:nonzero;"/>
                    </g>
                </g>
            </g>
            <g transform="matrix(1.0638,0,0,1,295.259,344.161)">
                <g transform="matrix(20.9563,0,0,20.9563,0,0)">
                    <path d="M0.467,-0.647L0.204,-0.647L0.204,-0.466L0.458,-0.466L0.458,-0.359L0.204,-0.359L0.204,-0L0.09,-0L0.09,-0.754L0.467,-0.754L0.467,-0.647Z" style="fill-rule:nonzero;"/>
                </g>
                <g transform="matrix(1,0,0,1,11.699,0)">
                    <g transform="matrix(20.9563,0,0,20.9563,0,0)">
                        <path d="M0.053,-0.38C0.053,-0.486 0.092,-0.578 0.169,-0.654C0.247,-0.73 0.34,-0.768 0.449,-0.768C0.556,-0.768 0.648,-0.73 0.725,-0.653C0.802,-0.576 0.841,-0.484 0.841,-0.376C0.841,-0.268 0.802,-0.176 0.725,-0.1C0.647,-0.024 0.553,0.014 0.443,0.014C0.346,0.014 0.258,-0.02 0.181,-0.087C0.095,-0.162 0.053,-0.26 0.053,-0.38ZM0.167,-0.379C0.167,-0.296 0.195,-0.227 0.251,-0.173C0.307,-0.12 0.371,-0.093 0.444,-0.093C0.523,-0.093 0.59,-0.12 0.645,-0.175C0.699,-0.23 0.726,-0.298 0.726,-0.377C0.726,-0.457 0.699,-0.525 0.646,-0.579C0.592,-0.634 0.526,-0.661 0.447,-0.661C0.369,-0.661 0.303,-0.634 0.249,-0.579C0.194,-0.525 0.167,-0.458 0.167,-0.379Z" style="fill-rule:nonzero;"/>
                    </g>
                    <g transform="matrix(20.9563,0,0,20.9563,18.9226,0)">
                        <path d="M0.346,-0.321L0.579,-0L0.44,-0L0.225,-0.309L0.204,-0.309L0.204,-0L0.09,-0L0.09,-0.754L0.224,-0.754C0.323,-0.754 0.395,-0.735 0.439,-0.698C0.488,-0.656 0.513,-0.601 0.513,-0.533C0.513,-0.479 0.497,-0.433 0.467,-0.395C0.436,-0.357 0.396,-0.332 0.346,-0.321ZM0.204,-0.408L0.24,-0.408C0.348,-0.408 0.402,-0.449 0.402,-0.531C0.402,-0.608 0.349,-0.647 0.245,-0.647L0.204,-0.647L0.204,-0.408Z" style="fill-rule:nonzero;"/>
                    </g>
                </g>
                <g transform="matrix(1,0,0,1,52.611,0)">
                    <g transform="matrix(20.9563,0,0,20.9563,0,0)">
                        <path d="M0.647,-0.713L0.647,-0.579C0.582,-0.634 0.514,-0.661 0.443,-0.661C0.366,-0.661 0.301,-0.633 0.248,-0.578C0.194,-0.522 0.167,-0.455 0.167,-0.375C0.167,-0.295 0.194,-0.229 0.248,-0.174C0.301,-0.12 0.366,-0.093 0.444,-0.093C0.484,-0.093 0.518,-0.099 0.546,-0.112C0.562,-0.119 0.578,-0.128 0.594,-0.139C0.611,-0.15 0.629,-0.163 0.647,-0.179L0.647,-0.042C0.582,-0.005 0.514,0.014 0.442,0.014C0.335,0.014 0.243,-0.024 0.167,-0.099C0.091,-0.175 0.053,-0.266 0.053,-0.374C0.053,-0.47 0.084,-0.555 0.148,-0.63C0.226,-0.722 0.327,-0.769 0.451,-0.769C0.519,-0.769 0.584,-0.75 0.647,-0.713Z" style="fill-rule:nonzero;"/>
                    </g>
                </g>
                <g transform="matrix(1,0,0,1,68.782,0)">
                    <g transform="matrix(20.9563,0,0,20.9563,0,0)">
                        <path d="M0.204,-0.459L0.529,-0.459L0.529,-0.754L0.643,-0.754L0.643,-0L0.529,-0L0.529,-0.352L0.204,-0.352L0.204,-0L0.09,-0L0.09,-0.754L0.204,-0.754L0.204,-0.459Z" style="fill-rule:nonzero;"/>
                    </g>
                </g>
                <g transform="matrix(1,0,0,1,85.179,0)">
                    <g transform="matrix(20.9563,0,0,20.9563,0,0)">
                        <path d="M0.053,-0.38C0.053,-0.486 0.092,-0.578 0.169,-0.654C0.247,-0.73 0.34,-0.768 0.449,-0.768C0.556,-0.768 0.648,-0.73 0.725,-0.653C0.802,-0.576 0.841,-0.484 0.841,-0.376C0.841,-0.268 0.802,-0.176 0.725,-0.1C0.647,-0.024 0.553,0.014 0.443,0.014C0.346,0.014 0.258,-0.02 0.181,-0.087C0.095,-0.162 0.053,-0.26 0.053,-0.38ZM0.167,-0.379C0.167,-0.296 0.195,-0.227 0.251,-0.173C0.307,-0.12 0.371,-0.093 0.444,-0.093C0.523,-0.093 0.59,-0.12 0.645,-0.175C0.699,-0.23 0.726,-0.298 0.726,-0.377C0.726,-0.457 0.699,-0.525 0.646,-0.579C0.592,-0.634 0.526,-0.661 0.447,-0.661C0.369,-0.661 0.303,-0.634 0.249,-0.579C0.194,-0.525 0.167,-0.458 0.167,-0.379Z" style="fill-rule:nonzero;"/>
                    </g>
                    <g transform="matrix(20.9563,0,0,20.9563,18.9226,0)">
                        <rect x="0.09" y="-0.754" width="0.114" height="0.754" style="fill-rule:nonzero;"/>
                    </g>
                    <g transform="matrix(20.9563,0,0,20.9563,25.3,0)">
                        <path d="M0.647,-0.713L0.647,-0.579C0.582,-0.634 0.514,-0.661 0.443,-0.661C0.366,-0.661 0.301,-0.633 0.248,-0.578C0.194,-0.522 0.167,-0.455 0.167,-0.375C0.167,-0.295 0.194,-0.229 0.248,-0.174C0.301,-0.12 0.366,-0.093 0.444,-0.093C0.484,-0.093 0.518,-0.099 0.546,-0.112C0.562,-0.119 0.578,-0.128 0.594,-0.139C0.611,-0.15 0.629,-0.163 0.647,-0.179L0.647,-0.042C0.582,-0.005 0.514,0.014 0.442,0.014C0.335,0.014 0.243,-0.024 0.167,-0.099C0.091,-0.175 0.053,-0.266 0.053,-0.374C0.053,-0.47 0.084,-0.555 0.148,-0.63C0.226,-0.722 0.327,-0.769 0.451,-0.769C0.519,-0.769 0.584,-0.75 0.647,-0.713Z" style="fill-rule:nonzero;"/>
                    </g>
                </g>
                <g transform="matrix(1,0,0,1,127.912,0)">
                    <g transform="matrix(20.9563,0,0,20.9563,0,0)">
                        <path d="M0.506,-0.647L0.204,-0.647L0.204,-0.466L0.498,-0.466L0.498,-0.359L0.204,-0.359L0.204,-0.107L0.506,-0.107L0.506,-0L0.09,-0L0.09,-0.754L0.506,-0.754L0.506,-0.647Z" style="fill-rule:nonzero;"/>
                    </g>
                </g>
            </g>
            <g transform="matrix(1.0638,0,0,1,295.259,367.486)">
                <g transform="matrix(20.9563,0,0,20.9563,0,0)">
                    <path d="M0.478,-0.393L0.79,-0.393L0.79,-0.368C0.79,-0.311 0.783,-0.261 0.77,-0.217C0.757,-0.177 0.735,-0.139 0.704,-0.104C0.634,-0.025 0.545,0.014 0.437,0.014C0.331,0.014 0.241,-0.024 0.166,-0.1C0.09,-0.177 0.053,-0.268 0.053,-0.375C0.053,-0.485 0.091,-0.578 0.167,-0.654C0.244,-0.73 0.337,-0.769 0.447,-0.769C0.506,-0.769 0.561,-0.757 0.612,-0.732C0.661,-0.708 0.709,-0.669 0.756,-0.615L0.675,-0.538C0.613,-0.62 0.538,-0.661 0.449,-0.661C0.369,-0.661 0.302,-0.634 0.248,-0.579C0.194,-0.525 0.167,-0.457 0.167,-0.375C0.167,-0.292 0.197,-0.222 0.257,-0.168C0.314,-0.118 0.375,-0.092 0.44,-0.092C0.496,-0.092 0.547,-0.111 0.591,-0.149C0.636,-0.187 0.661,-0.233 0.666,-0.286L0.478,-0.286L0.478,-0.393Z" style="fill:rgb(128,33,126);fill-rule:nonzero;"/>
                </g>
                <g transform="matrix(20.9563,0,0,20.9563,17.8482,0)">
                    <path d="M0.506,-0.647L0.204,-0.647L0.204,-0.466L0.498,-0.466L0.498,-0.359L0.204,-0.359L0.204,-0.107L0.506,-0.107L0.506,-0L0.09,-0L0.09,-0.754L0.506,-0.754L0.506,-0.647Z" style="fill:rgb(128,33,126);fill-rule:nonzero;"/>
                </g>
                <g transform="matrix(20.9563,0,0,20.9563,29.8945,0)">
                    <path d="M0.346,-0.321L0.579,-0L0.44,-0L0.225,-0.309L0.204,-0.309L0.204,-0L0.09,-0L0.09,-0.754L0.224,-0.754C0.323,-0.754 0.395,-0.735 0.439,-0.698C0.488,-0.656 0.513,-0.601 0.513,-0.533C0.513,-0.479 0.497,-0.433 0.467,-0.395C0.436,-0.357 0.396,-0.332 0.346,-0.321ZM0.204,-0.408L0.24,-0.408C0.348,-0.408 0.402,-0.449 0.402,-0.531C0.402,-0.608 0.349,-0.647 0.245,-0.647L0.204,-0.647L0.204,-0.408Z" style="fill:rgb(128,33,126);fill-rule:nonzero;"/>
                </g>
                <g transform="matrix(20.9563,0,0,20.9563,42.7082,0)">
                    <path d="M0.064,-0L0.223,-0.811L0.481,-0.225L0.75,-0.811L0.892,-0L0.775,-0L0.703,-0.455L0.479,0.035L0.263,-0.456L0.182,-0L0.064,-0Z" style="fill:rgb(128,33,126);fill-rule:nonzero;"/>
                </g>
                <g transform="matrix(1,0,0,1,66.372,0)">
                    <g transform="matrix(20.9563,0,0,20.9563,0,0)">
                        <path d="M0.533,-0.183L0.21,-0.183L0.126,-0L0.004,-0L0.377,-0.801L0.737,-0L0.612,-0L0.533,-0.183ZM0.487,-0.29L0.375,-0.546L0.258,-0.29L0.487,-0.29Z" style="fill:rgb(128,33,126);fill-rule:nonzero;"/>
                    </g>
                </g>
                <g transform="matrix(1,0,0,1,82.943,0)">
                    <g transform="matrix(20.9563,0,0,20.9563,0,0)">
                        <path d="M0.09,-0L0.09,-0.805L0.64,-0.23L0.64,-0.754L0.754,-0.754L0.754,0.046L0.204,-0.528L0.204,-0L0.09,-0Z" style="fill:rgb(128,33,126);fill-rule:nonzero;"/>
                    </g>
                </g>
                <g transform="matrix(1,0,0,1,101.662,0)">
                    <g transform="matrix(20.9563,0,0,20.9563,0,0)">
                        <path d="M0.243,-0.326L-0.003,-0.754L0.127,-0.754L0.3,-0.453L0.473,-0.754L0.604,-0.754L0.356,-0.326L0.356,-0L0.243,-0L0.243,-0.326Z" style="fill:rgb(128,33,126);fill-rule:nonzero;"/>
                    </g>
                </g>
            </g>
            <g>
                <clipPath id="_clip1">
                    <rect x="209.63" y="216.185" width="205.905" height="139.331"/>
                </clipPath>
                <g clip-path="url(#_clip1)">
                    <path d="M332.259,261.208C332.259,238.083 313.512,219.335 290.386,219.335C267.261,219.335 248.513,238.083 248.513,261.208" style="fill:none;fill-rule:nonzero;stroke:black;stroke-width:6.3px;"/>
                </g>
                <g>
                    <path d="M248.547,324.268C263.246,324.268 275.409,313.428 277.488,299.307L219.607,299.307C221.686,313.428 233.849,324.268 248.547,324.268Z" style="fill:none;fill-rule:nonzero;"/>
                    <path d="M248.547,265.753C233.138,265.753 220.521,277.668 219.382,292.786L277.712,292.786C276.575,277.667 263.957,265.753 248.547,265.753Z" style="fill:none;fill-rule:nonzero;"/>
                    <path d="M248.547,265.753C263.956,265.753 276.574,277.668 277.712,292.786L284.031,292.786C282.884,274.183 267.439,259.448 248.547,259.448C229.655,259.448 214.211,274.183 213.063,292.786L219.382,292.786C220.521,277.667 233.138,265.753 248.547,265.753Z" style="fill-rule:nonzero;"/>
                    <path d="M332.423,265.753C347.832,265.753 360.45,277.668 361.588,292.786L367.906,292.786C366.759,274.183 351.314,259.448 332.423,259.448C313.529,259.448 298.087,274.183 296.939,292.786L303.258,292.786C304.396,277.667 317.014,265.753 332.423,265.753Z" style="fill-rule:nonzero;"/>
                    <path d="M248.547,324.268C233.849,324.268 221.685,313.428 219.607,299.307L213.255,299.307C215.379,316.918 230.364,330.568 248.547,330.568C266.73,330.568 281.715,316.919 283.839,299.307L277.487,299.307C275.409,313.428 263.246,324.268 248.547,324.268Z" style="fill:rgb(128,33,126);fill-rule:nonzero;"/>
                </g>
            </g>
        </g>
    </g>
</svg>
