<svg xmlns="http://www.w3.org/2000/svg" xmlns:xlink="http://www.w3.org/1999/xlink" xml:space="preserve" width="231.378" height="143.185"><g transform="matrix(1.33333 0 0 -1.33333 9.851 153.666)"><path d="M121.203 63.287c0 .426-.1.727-.3.908-.202.18-.436.27-.708.27-.286 0-.533-.09-.736-.27-.205-.18-.307-.482-.307-.908 0-.426.102-.73.307-.909.203-.181.443-.27.712-.27.286 0 .53.089.732.27.2.18.3.483.3.909zm-1.314-3.878a2.52 2.52 0 0 0-.455.035 1.177 1.177 0 0 1-.405-.356 1.114 1.114 0 0 1-.196-.674c0-.632.347-.947 1.043-.947.599 0 1.038.118 1.327.351.285.233.43.501.43.804 0 .286-.09.488-.273.608-.18.119-.42.179-.723.179zm2.736 4.934h-.736c.189-.311.283-.663.283-1.056 0-.312-.05-.592-.153-.842a1.787 1.787 0 0 0-.429-.632 1.863 1.863 0 0 0-.652-.393 2.332 2.332 0 0 0-.804-.136h-.16c-.05 0-.102.006-.158.014a1.212 1.212 0 0 1-.308-.198.44.44 0 0 1-.159-.354c0-.124.046-.222.14-.303.094-.075.248-.115.46-.115h.749c.278 0 .538-.029.774-.087.237-.055.444-.147.621-.275a1.31 1.31 0 0 0 .41-.484c.098-.198.15-.435.15-.712 0-.32-.069-.61-.203-.873a2.041 2.041 0 0 0-.572-.676 2.81 2.81 0 0 0-.897-.441 4.093 4.093 0 0 0-1.177-.16c-.632 0-1.11.139-1.438.413-.327.272-.49.667-.49 1.183 0 .22.037.412.115.571.077.16.17.299.277.418.105.12.215.213.325.283.11.067.198.126.263.164v.026c-.254.188-.38.462-.38.823 0 .154.03.289.093.405a1.13 1.13 0 0 0 .441.46c.079.044.138.075.177.09v.026a1.674 1.674 0 0 0-.73.656c-.183.298-.275.682-.275 1.149 0 .328.053.616.16.865.106.25.249.457.429.62.182.164.391.286.633.369.241.08.501.123.777.123.282 0 .543-.05.787-.147h1.794zm-6.702-5.119v3.793c0 .499-.085.857-.252 1.075-.167.216-.423.324-.766.324-.296 0-.542-.073-.738-.221a2.728 2.728 0 0 1-.467-.43v-4.541h-.995v5.893h.909v-.664h.026c.023.05.076.12.16.214.08.096.187.186.319.271.131.086.285.162.466.227.18.066.385.099.614.099.263 0 .5-.04.712-.116.212-.079.393-.204.541-.376a1.85 1.85 0 0 0 .343-.67c.081-.272.122-.611.122-1.013v-3.865Zm-4.738 0h-.908v.662h-.027a1.176 1.176 0 0 0-.158-.213 1.499 1.499 0 0 0-.314-.27 2.025 2.025 0 0 0-.461-.228c-.18-.067-.38-.1-.601-.1-.263 0-.496.04-.707.118a1.28 1.28 0 0 0-.533.375c-.147.172-.26.394-.338.667a3.771 3.771 0 0 0-.116 1.013v3.869h.993v-3.795c0-.492.081-.84.24-1.048.16-.209.409-.313.743-.313.287 0 .53.07.724.214.198.143.353.282.467.422v4.52h.996zm-6.607 0v3.793c0 .499-.084.857-.25 1.075-.17.216-.426.324-.77.324-.294 0-.538-.073-.736-.221a2.783 2.783 0 0 1-.466-.43v-4.541h-.994v8.68l.994.11v-3.5h.025c.034.05.084.116.154.197.069.082.165.164.287.245a1.89 1.89 0 0 0 1.07.308c.515 0 .924-.168 1.226-.504.303-.337.455-.893.455-1.67v-3.866zm-4.677 4.75a4.478 4.478 0 0 1-.117.112c-.052.048-.12.097-.203.146-.082.048-.18.092-.296.13a1.513 1.513 0 0 1-.986-.061 1.199 1.199 0 0 1-.48-.376 1.932 1.932 0 0 1-.32-.669 3.756 3.756 0 0 1-.114-1c0-.435.034-.8.104-1.092.069-.296.165-.531.288-.709.122-.174.271-.3.447-.378.177-.077.37-.116.583-.116.304 0 .535.051.694.158.16.106.274.193.338.259l.405-.69c-.04-.048-.101-.107-.178-.177a1.452 1.452 0 0 0-.301-.2 1.973 1.973 0 0 0-.447-.167 2.455 2.455 0 0 0-.608-.069c-.329 0-.634.054-.92.16-.288.107-.537.282-.75.528-.213.246-.38.565-.502.956-.123.393-.186.881-.186 1.46 0 .568.074 1.046.22 1.439.15.393.341.71.578.953.238.24.503.416.791.526.293.11.586.167.878.167.223 0 .417-.021.585-.062.167-.04.31-.092.43-.153a1.4 1.4 0 0 0 .293-.196c.079-.07.142-.13.191-.18zm-5.033-.049a2.547 2.547 0 0 1-.357.302c-.171.127-.397.19-.674.19-.264 0-.464-.062-.604-.185a.574.574 0 0 1-.208-.442c0-.22.064-.403.191-.546.128-.145.32-.296.583-.46l.368-.223c.4-.236.716-.493.947-.766.227-.274.343-.627.343-1.061 0-.466-.163-.86-.487-1.18-.322-.318-.787-.479-1.393-.479a2.37 2.37 0 0 0-.624.075c-.181.05-.337.105-.473.171a1.559 1.559 0 0 0-.339.216c-.089.08-.163.148-.22.215l.479.785a4.61 4.61 0 0 1 .178-.17 1.607 1.607 0 0 1 .583-.345c.121-.043.267-.061.428-.061.296 0 .521.063.677.196.157.13.232.288.232.478 0 .138-.018.26-.055.363a.843.843 0 0 1-.165.275 1.47 1.47 0 0 1-.27.233c-.106.074-.229.155-.37.245l-.367.233c-.368.24-.655.488-.865.75-.21.263-.313.597-.313 1.007a1.414 1.414 0 0 0 .49 1.087c.157.135.337.241.547.32.209.076.432.116.669.116.229 0 .425-.023.589-.068.164-.044.305-.103.424-.172.118-.07.216-.14.296-.21.076-.067.14-.129.189-.177zm-3.475.32a.798.798 0 0 1-.16.062 1.244 1.244 0 0 1-.332.036c-.31 0-.554-.085-.73-.251-.176-.169-.3-.35-.374-.547v-4.321h-.995v5.893h.908v-.8h.025c.041.115.093.228.16.339a1.12 1.12 0 0 0 .595.498c.135.048.296.073.486.073.137 0 .251-.013.338-.038.085-.024.151-.044.201-.06zm-4.875-2.076c0 .786-.114 1.357-.343 1.713-.23.356-.549.534-.957.534-.41 0-.727-.178-.953-.534-.225-.356-.337-.927-.337-1.713s.114-1.35.344-1.693a1.09 1.09 0 0 1 .958-.515c.41 0 .726.172.95.515.226.342.338.907.338 1.693zm-3.621 0c0 .54.063 1.007.19 1.4.126.393.299.715.515.963.218.251.466.435.75.553.282.119.582.179.902.179.327 0 .63-.06.91-.18a1.87 1.87 0 0 0 .723-.552c.205-.248.367-.57.485-.963.119-.393.178-.86.178-1.4 0-.548-.06-1.02-.184-1.412a2.685 2.685 0 0 0-.51-.963 1.964 1.964 0 0 0-.755-.547 2.456 2.456 0 0 0-.908-.172c-.328 0-.63.06-.909.172a1.845 1.845 0 0 0-.725.547c-.203.251-.366.57-.485.957-.118.388-.177.861-.177 1.418zm-4.911-2.945v8.471h4.161l-.072-.847h-3.022v-3.132h2.788v-.847h-2.788v-3.645Zm-6.434.737a1.292 1.292 0 0 1 .965.406c.06.063.108.12.14.17v3.634c-.09.057-.194.105-.313.147a1.367 1.367 0 0 1-.448.06 1.75 1.75 0 0 1-.645-.115 1.271 1.271 0 0 1-.522-.386 2.025 2.025 0 0 1-.349-.7 3.737 3.737 0 0 1-.129-1.057c0-.41.035-.75.105-1.027a1.9 1.9 0 0 1 .288-.66c.123-.167.262-.288.417-.362.156-.073.32-.11.491-.11zm-2.332 2.122c0 .597.077 1.097.234 1.498.155.402.355.726.6.97.246.245.525.42.835.522.311.103.623.154.934.154.188 0 .352-.015.49-.043.14-.029.254-.064.344-.106v2.825l.995.11v-8.789h-.909v.625h-.025a1.354 1.354 0 0 0-.404-.46 1.678 1.678 0 0 0-1.032-.314 1.93 1.93 0 0 0-.792.167c-.25.112-.468.287-.656.527-.189.242-.338.553-.448.933-.11.381-.166.841-.166 1.38zm-2.21-2.859v3.793c0 .499-.084.857-.251 1.075-.169.216-.424.324-.769.324-.294 0-.539-.073-.736-.221a2.695 2.695 0 0 1-.466-.43v-4.541h-.994v5.893h.908v-.664h.024c.024.05.078.12.16.214.08.096.188.186.319.271.13.086.286.162.467.227.18.066.384.099.613.099.262 0 .5-.04.713-.116.213-.079.392-.204.54-.376.147-.172.261-.395.343-.67.082-.272.124-.611.124-1.013v-3.865Zm-4.74 0h-.909v.662h-.023a1.558 1.558 0 0 0-.473-.484 2.063 2.063 0 0 0-.46-.227 1.73 1.73 0 0 0-.602-.1c-.262 0-.497.04-.706.118a1.276 1.276 0 0 0-.533.375c-.148.172-.261.394-.339.667a3.727 3.727 0 0 0-.116 1.013v3.869h.994v-3.795c0-.492.08-.84.239-1.048.16-.209.407-.313.744-.313.285 0 .528.07.723.214.198.143.352.282.467.422v4.52h.994zm42.21 16.444c0 .425-.101.729-.301.908-.2.18-.436.27-.706.27-.287 0-.532-.09-.736-.27-.204-.18-.308-.483-.308-.908 0-.426.104-.73.308-.909.204-.18.442-.27.712-.27.286 0 .53.09.73.27.2.18.301.483.301.909zm-1.314-3.88c-.17 0-.323.012-.454.037a1.463 1.463 0 0 1-.214-.147 1.113 1.113 0 0 1-.192-.21 1.147 1.147 0 0 1-.195-.674c0-.63.348-.946 1.043-.946.6 0 1.041.117 1.326.349.287.234.43.502.43.805 0 .288-.09.489-.27.608-.18.118-.42.178-.725.178zm2.738 4.935h-.736c.188-.311.282-.663.282-1.055 0-.312-.05-.592-.153-.841a1.76 1.76 0 0 0-.43-.633 1.887 1.887 0 0 0-.65-.393 2.363 2.363 0 0 0-.804-.135h-.161c-.048 0-.102.005-.158.013a1.274 1.274 0 0 1-.31-.197.448.448 0 0 1-.157-.356c0-.123.047-.223.14-.302.095-.075.25-.116.461-.116h.749c.278 0 .535-.029.774-.085.237-.058.445-.15.618-.276.177-.127.315-.288.413-.485.098-.198.148-.434.148-.713 0-.319-.07-.61-.204-.872a1.992 1.992 0 0 0-.57-.674 2.762 2.762 0 0 0-.896-.443 4.104 4.104 0 0 0-1.18-.16c-.63 0-1.11.137-1.436.412-.328.275-.49.67-.49 1.185 0 .22.038.412.115.571.079.16.17.299.278.417.106.12.214.213.324.283.11.07.2.125.265.164v.027c-.255.187-.38.462-.38.822 0 .156.029.29.09.405a1.102 1.102 0 0 0 .443.46c.078.045.137.076.178.093v.024c-.303.139-.547.358-.73.657-.184.298-.279.681-.279 1.148 0 .327.056.616.162.865.106.25.25.456.428.62.182.164.391.287.634.369.24.081.5.122.78.122.278 0 .54-.05.784-.148h1.795zm-6.703-5.12v3.795c0 .499-.083.857-.254 1.074-.165.217-.42.325-.764.325-.296 0-.542-.074-.736-.221a2.582 2.582 0 0 1-.468-.43v-4.542h-.995v5.892h.908v-.663h.026a1.496 1.496 0 0 0 .48.486c.128.085.284.162.465.227.18.066.385.098.613.098.263 0 .5-.039.714-.117.212-.078.391-.202.538-.373.149-.172.264-.396.345-.67.08-.274.122-.612.122-1.013v-3.867zm-4.739 0h-.909v.663h-.024a1.368 1.368 0 0 0-.16-.215 1.677 1.677 0 0 0-.313-.27 2.1 2.1 0 0 0-.461-.226 1.725 1.725 0 0 0-.602-.098 1.98 1.98 0 0 0-.704.117c-.21.076-.388.201-.534.374-.149.172-.26.394-.338.669a3.764 3.764 0 0 0-.117 1.012v3.867h.995v-3.793c0-.491.079-.841.239-1.05.16-.208.406-.313.743-.313.287 0 .526.072.724.215.195.142.353.284.466.424v4.517h.995zm-7.747.737a1.298 1.298 0 0 1 .964.406c.062.065.109.122.142.172v3.634a1.52 1.52 0 0 1-.314.147c-.118.041-.268.06-.447.06a1.75 1.75 0 0 1-.645-.115 1.26 1.26 0 0 1-.522-.387 1.986 1.986 0 0 1-.35-.7c-.087-.287-.13-.638-.13-1.055 0-.41.035-.752.105-1.026.07-.274.166-.495.289-.663a1.12 1.12 0 0 1 .416-.362c.157-.074.32-.11.492-.11zm-2.333 2.125c0 .596.078 1.096.233 1.498.156.4.357.724.603.969.244.246.523.42.834.522.312.102.623.154.933.154.19 0 .352-.015.491-.043.139-.03.255-.064.345-.105v2.824l.994.11v-8.79h-.91v.627h-.023a1.29 1.29 0 0 0-.135-.204 1.464 1.464 0 0 0-.27-.258 1.664 1.664 0 0 0-.43-.221 1.785 1.785 0 0 0-.602-.091c-.279 0-.542.053-.792.164-.25.112-.469.287-.657.529a2.75 2.75 0 0 0-.447.933c-.111.381-.167.841-.167 1.382zm-1.546-1.486c0-.245.034-.418.104-.516.068-.097.19-.146.363-.146.089 0 .165.007.227.023.06.018.108.033.14.05l.087-.738a1.82 1.82 0 0 0-.799-.16c-.336.001-.606.104-.81.308-.205.204-.307.57-.307 1.093v7.39l.995.112zm-2.996 5.942a.641.641 0 0 0-.491.196.726.726 0 0 0-.185.517c0 .203.062.372.185.503.123.13.287.196.49.196a.627.627 0 0 0 .48-.196.707.707 0 0 0 .184-.503.725.725 0 0 0-.185-.517.625.625 0 0 0-.478-.196zm.491-7.317h-.995v5.892h.995zm-3.45 2.369c0 .46-.15.82-.448 1.087-.299.266-.727.399-1.283.399h-.725v-2.97h.663c.63 0 1.087.124 1.369.373.283.25.424.62.424 1.11zm-.16 3.904c0 .393-.139.717-.417.97-.279.255-.717.381-1.314.381h-.565v-2.923h.554c.571 0 1.005.14 1.3.418.296.279.442.663.442 1.154zm1.08.037c0-.295-.036-.552-.11-.773a1.851 1.851 0 0 0-.3-.571 1.566 1.566 0 0 0-.442-.386 2.102 2.102 0 0 0-.522-.221v-.026c.22-.04.427-.118.62-.233a1.946 1.946 0 0 0 .847-1.038c.086-.233.128-.488.128-.767 0-.335-.057-.642-.17-.92a1.888 1.888 0 0 0-.535-.724 2.58 2.58 0 0 0-.915-.48c-.368-.114-.806-.171-1.314-.171h-1.73v8.471h1.632c.5 0 .927-.05 1.283-.152.356-.104.65-.25.878-.437.229-.188.395-.416.498-.681.101-.267.152-.563.152-.89zm-7.955-1.289a.707.707 0 0 1-.16.062 1.242 1.242 0 0 1-.33.036c-.313 0-.556-.083-.732-.251a1.458 1.458 0 0 1-.374-.546v-4.322h-.995v5.892h.91V76.7h.024c.04.115.094.227.16.337.065.111.146.21.244.295.1.086.215.154.35.203.135.049.297.074.485.074.14 0 .253-.013.338-.037.086-.025.153-.045.203-.062zm-4.665 2.566a.618.618 0 0 0-.172-.454.573.573 0 0 0-.418-.172.57.57 0 0 0-.417.172.613.613 0 0 0-.173.454c0 .189.058.34.173.454a.568.568 0 0 0 .417.172.572.572 0 0 0 .418-.172.618.618 0 0 0 .172-.454zm-1.891 0a.613.613 0 0 0-.172-.454.57.57 0 0 0-.418-.172.567.567 0 0 0-.417.172.615.615 0 0 0-.172.454c0 .189.058.34.172.454a.566.566 0 0 0 .417.172.568.568 0 0 0 .418-.172.613.613 0 0 0 .172-.454zm2.443-7.587h-.908v.662H64.8a1.335 1.335 0 0 0-.16-.215 1.64 1.64 0 0 0-.313-.27 2.085 2.085 0 0 0-.46-.226 1.736 1.736 0 0 0-.602-.098c-.262 0-.498.038-.705.117a1.27 1.27 0 0 0-.535.374 1.73 1.73 0 0 0-.338.669 3.814 3.814 0 0 0-.116 1.012v3.867h.995v-3.793c0-.491.08-.841.239-1.05.16-.208.407-.313.742-.313.287 0 .529.072.724.215.197.142.353.284.468.424v4.517h.994zm-5.108 5.083h-1.203v-5.083h-.994v5.083h-.713v.663l.713.135v1.178c0 .32.044.594.136.823.089.229.208.418.355.564a1.3 1.3 0 0 0 .516.32c.196.066.405.098.626.098.212 0 .393-.029.54-.086.147-.057.245-.103.295-.135l-.21-.823a.903.903 0 0 1-.54.16c-.236 0-.417-.074-.54-.22-.123-.148-.184-.418-.184-.811v-1.057h1.326zm77.335 7.298v3.794c0 .482-.069.83-.209 1.043-.138.212-.364.319-.674.319-.164 0-.309-.02-.438-.061a1.566 1.566 0 0 1-.335-.154 1.376 1.376 0 0 1-.258-.202 3.912 3.912 0 0 1-.184-.197v-4.542h-.996v5.893h.909v-.663h.026c.04.065.102.144.182.238a1.706 1.706 0 0 0 .737.486c.165.057.347.085.554.085.67 0 1.145-.26 1.424-.785.056.081.134.169.234.265a1.894 1.894 0 0 0 1.326.52c1.194 0 1.792-.695 1.792-2.086v-3.953h-.995v3.794c0 .482-.086.83-.257 1.043-.172.212-.426.32-.763.32-.277 0-.508-.069-.692-.203a2.564 2.564 0 0 1-.436-.387 3.542 3.542 0 0 0 .048-.614v-3.953zm-4.615 0h-.908v.663h-.026a1.247 1.247 0 0 0-.158-.215 1.628 1.628 0 0 0-.314-.271 2.136 2.136 0 0 0-.46-.227 1.756 1.756 0 0 0-.6-.098c-.264 0-.5.04-.71.117a1.288 1.288 0 0 0-.533.374c-.146.173-.26.395-.338.67a3.87 3.87 0 0 0-.117 1.011v3.87h.995v-3.795c0-.491.081-.841.24-1.05.16-.209.407-.314.743-.314.287 0 .527.072.724.216.198.143.352.284.467.425v4.517h.995zm-6.138 7.317a.644.644 0 0 0-.493.196.72.72 0 0 0-.184.515c0 .205.06.373.184.503a.644.644 0 0 0 .493.197.628.628 0 0 0 .479-.197.703.703 0 0 0 .183-.503.72.72 0 0 0-.183-.515.628.628 0 0 0-.479-.196zm.49-7.317h-.996v5.893h.996zm-1.976 5.021a.76.76 0 0 1-.159.06 1.172 1.172 0 0 1-.332.038c-.31 0-.555-.084-.731-.251-.176-.168-.301-.35-.375-.546v-4.322h-.994v5.893h.908v-.798h.023c.043.114.095.227.162.337.064.112.148.208.245.295.1.085.216.153.35.202.135.05.297.075.485.075.14 0 .252-.013.338-.038a5.79 5.79 0 0 0 .201-.06zm-5.783.209a.996.996 0 0 1-.847-.442c-.214-.295-.337-.721-.37-1.276h2.15c.007.04.015.099.02.177.002.078.006.16.006.252 0 .41-.083.726-.248.951-.163.225-.4.338-.71.338zm1.866-1.327c0-.254-.008-.472-.025-.656-.015-.184-.034-.346-.05-.485h-3.008c.033-.695.183-1.208.45-1.535.266-.327.648-.492 1.148-.492a1.675 1.675 0 0 1 .827.21c.102.056.19.114.258.172.07.056.122.103.155.135l.367-.7c-.04-.041-.103-.1-.184-.178a1.666 1.666 0 0 0-.332-.234 2.383 2.383 0 0 0-.513-.202 2.735 2.735 0 0 0-.726-.086c-.367 0-.7.06-1 .184a1.907 1.907 0 0 0-.762.57c-.208.258-.37.586-.485.984-.115.396-.171.873-.171 1.43 0 .523.058.976.177 1.357.119.38.281.693.486.938.205.247.44.428.711.547.27.119.562.177.873.177.563 0 1.007-.177 1.327-.533.318-.356.477-.89.477-1.603zm-4.825 1.179h-1.29V85.8c0-.417.054-.7.16-.853.106-.15.287-.228.54-.228.148 0 .276.022.381.062.106.04.184.079.233.111l.135-.798a1.632 1.632 0 0 0-.295-.154c-.155-.068-.364-.104-.625-.104-.507 0-.889.142-1.142.424-.255.283-.381.751-.381 1.405v3.4h-.712v.664l.712.148.111 1.644h.884v-1.644h1.413zm-4.274-.38a2.368 2.368 0 0 1-.354.3c-.173.128-.399.191-.676.191-.262 0-.462-.062-.602-.185a.566.566 0 0 1-.208-.441c0-.222.063-.402.19-.547.127-.143.32-.296.583-.46l.37-.221c.4-.237.714-.493.943-.768.23-.274.344-.628.344-1.061 0-.467-.162-.86-.485-1.18-.323-.318-.787-.478-1.393-.478-.237 0-.445.024-.626.074a2.662 2.662 0 0 0-.472.172 1.577 1.577 0 0 0-.338.214c-.09.078-.164.15-.222.216l.48.785.177-.172c.07-.066.154-.129.253-.19a1.37 1.37 0 0 1 .76-.216c.294 0 .52.067.675.198.157.13.233.29.233.478 0 .14-.017.26-.056.363a.81.81 0 0 1-.163.276c-.075.082-.166.16-.272.233a9.399 9.399 0 0 1-.367.245l-.369.234a3.577 3.577 0 0 0-.866.75c-.209.26-.313.596-.313 1.005 0 .222.044.424.128.608.088.184.207.343.363.48.155.134.339.241.547.318.21.078.432.116.67.116.23 0 .424-.021.588-.066a1.799 1.799 0 0 0 .718-.382c.076-.068.143-.128.19-.177zm-4.554 2.615a.643.643 0 0 0-.491.196.72.72 0 0 0-.185.515c0 .205.062.373.185.503a.643.643 0 0 0 .49.197.635.635 0 0 0 .482-.197.71.71 0 0 0 .182-.503.726.726 0 0 0-.182-.515.635.635 0 0 0-.481-.196zm.493-7.317h-.996v5.893h.996zm-3.476 0v3.794c0 .499-.083.856-.25 1.074-.168.217-.425.325-.77.325-.294 0-.54-.074-.735-.222a2.664 2.664 0 0 1-.468-.429v-4.542h-.993v5.893h.909v-.663h.024c.024.05.078.12.158.214.082.095.19.185.32.27.131.087.286.162.466.228.181.065.386.097.615.097.262 0 .498-.038.711-.116.213-.077.393-.202.54-.374a1.82 1.82 0 0 0 .346-.669c.08-.274.12-.611.12-1.013v-3.867Zm-5.232 7.317a.637.637 0 0 0-.489.196.717.717 0 0 0-.185.515.7.7 0 0 0 .185.503.637.637 0 0 0 .49.197.632.632 0 0 0 .481-.197.713.713 0 0 0 .182-.503.73.73 0 0 0-.182-.515.632.632 0 0 0-.482-.196zm.493-7.317h-.993v5.893h.993zm-6.568 0v3.794c0 .482-.07.83-.21 1.043-.139.212-.364.319-.675.319a1.432 1.432 0 0 1-1.031-.417 3.212 3.212 0 0 1-.184-.197v-4.542h-.994v5.893h.907v-.663h.026a1.888 1.888 0 0 0 .49.51c.123.085.266.157.431.214.163.057.347.085.551.085.671 0 1.147-.26 1.425-.785a1.928 1.928 0 0 0 1.558.785c1.197 0 1.792-.695 1.792-2.086v-3.953h-.993v3.794c0 .482-.086.83-.258 1.043-.171.212-.425.32-.76.32-.278 0-.51-.069-.694-.203a2.63 2.63 0 0 1-.436-.387c.016-.092.028-.186.036-.29.009-.102.013-.21.013-.324v-3.953zm-4.85 4.702a2.568 2.568 0 0 1-.356.3c-.173.128-.396.191-.676.191-.26 0-.462-.062-.601-.185a.567.567 0 0 1-.208-.441.79.79 0 0 1 .19-.547c.127-.143.32-.296.583-.46l.368-.221c.402-.237.716-.493.946-.768.23-.274.343-.628.343-1.061 0-.467-.161-.86-.484-1.18-.324-.318-.789-.478-1.393-.478a2.37 2.37 0 0 0-.627.074 2.72 2.72 0 0 0-.473.172 1.59 1.59 0 0 0-.338.214c-.089.078-.163.15-.221.216l.48.785c.049-.049.107-.107.178-.172a1.592 1.592 0 0 1 .582-.344 1.38 1.38 0 0 1 .43-.062c.294 0 .52.067.673.198.157.13.237.29.237.478 0 .14-.021.26-.057.363a.843.843 0 0 1-.166.276 1.55 1.55 0 0 1-.269.233 11.04 11.04 0 0 1-.369.245l-.367.234c-.37.237-.658.487-.866.75-.21.26-.314.596-.314 1.005a1.409 1.409 0 0 0 .492 1.088c.155.134.337.241.546.318.209.078.433.116.669.116.229 0 .425-.021.59-.066a1.764 1.764 0 0 0 .718-.382c.078-.068.14-.128.19-.177zm-5.734.528a.996.996 0 0 1-.846-.442c-.214-.295-.336-.721-.369-1.276h2.15c.008.04.013.099.017.177.004.078.006.16.006.252 0 .41-.081.726-.246.951-.163.225-.4.338-.712.338zm1.867-1.327c0-.254-.009-.472-.025-.656a22.012 22.012 0 0 0-.048-.485h-3.009c.033-.695.183-1.208.448-1.535.266-.327.65-.492 1.148-.492.172 0 .328.022.466.062a1.745 1.745 0 0 1 .774.455l.368-.7c-.04-.041-.102-.1-.184-.178a1.698 1.698 0 0 0-.33-.234 2.433 2.433 0 0 0-.517-.202 2.726 2.726 0 0 0-.724-.086c-.369 0-.703.06-1 .184-.3.123-.553.314-.762.57-.208.258-.37.586-.485.984-.115.396-.172.873-.172 1.43 0 .523.059.976.179 1.357.118.38.279.693.484.938.204.247.443.428.712.547.27.119.561.177.872.177.565 0 1.007-.177 1.326-.533.319-.356.48-.89.48-1.603zm-7.403-3.168a1.326 1.326 0 0 1 .736.216 1.345 1.345 0 0 1 .368.362v3.634c-.09.058-.194.107-.313.148-.119.04-.268.061-.448.061-.228 0-.444-.039-.644-.116a1.259 1.259 0 0 1-.522-.386 2.054 2.054 0 0 1-.351-.701 3.771 3.771 0 0 1-.128-1.056c0-.409.035-.751.105-1.025.069-.274.165-.495.287-.663.123-.169.263-.288.418-.363.156-.073.32-.11.492-.11zm-2.333 2.124c0 .598.077 1.098.233 1.499.156.4.356.724.601.97.246.245.525.419.835.522.311.103.622.154.934.154a2.5 2.5 0 0 0 .49-.044c.14-.028.254-.063.344-.105v2.824l.995.111v-8.79h-.908v.626h-.025a1.386 1.386 0 0 0-.406-.46 1.636 1.636 0 0 0-.429-.222 1.802 1.802 0 0 0-.602-.092c-.277 0-.542.055-.792.166-.249.11-.468.286-.657.527-.188.242-.337.553-.448.934-.11.38-.165.84-.165 1.38zm-2.21-2.86v3.795c0 .499-.084.856-.252 1.074-.168.217-.423.325-.768.325-.294 0-.54-.074-.736-.222a2.652 2.652 0 0 1-.466-.429v-4.542h-.995v5.893h.908v-.663h.025c.025.05.077.12.16.214.081.095.188.185.319.27.13.087.286.162.466.228.181.065.385.097.614.097.262 0 .5-.038.713-.116.212-.077.393-.202.54-.374.147-.172.262-.395.343-.669.082-.274.123-.611.123-1.013v-3.867Zm-4.74 0h-.908v.664h-.024a1.567 1.567 0 0 0-.473-.486 2.16 2.16 0 0 0-.461-.227 1.75 1.75 0 0 0-.602-.098 2 2 0 0 0-.705.117 1.28 1.28 0 0 0-.535.374c-.147.173-.26.395-.336.67a3.721 3.721 0 0 0-.118 1.011v3.87h.995v-3.795c0-.491.08-.841.239-1.05.16-.209.408-.314.743-.314.286 0 .528.072.725.216.196.143.35.284.466.425v4.517h.995zm-6.58 2.37c0 .459-.15.82-.448 1.087-.3.266-.727.399-1.283.399h-.725v-2.972h.664c.63 0 1.086.126 1.368.375.283.25.424.621.424 1.111zm-.16 3.905c0 .392-.139.716-.418.97-.278.253-.716.38-1.313.38h-.565v-2.922h.553c.573 0 1.007.138 1.301.417.295.278.443.663.443 1.155zm1.08.036c0-.294-.036-.552-.11-.775a1.846 1.846 0 0 0-.3-.57 1.608 1.608 0 0 0-.443-.387 2.182 2.182 0 0 0-.521-.22v-.024a1.928 1.928 0 0 0 1.123-.664c.143-.171.258-.373.344-.607.085-.234.129-.49.129-.768a2.4 2.4 0 0 0-.172-.92 1.864 1.864 0 0 0-.535-.725 2.58 2.58 0 0 0-.914-.479c-.368-.114-.807-.171-1.313-.171h-1.731v8.47h1.632c.5 0 .927-.05 1.284-.153.355-.102.648-.247.877-.436.229-.187.395-.415.497-.68.102-.268.153-.564.153-.89" style="fill:#231f20;fill-opacity:1;fill-rule:nonzero;stroke:none;stroke-width:.08262855"/><path d="M49.13 50.97h1.548V30.337h-3.61V50.97h2.063" style="fill:#f2cf04;fill-opacity:1;fill-rule:nonzero;stroke:none;stroke-width:.08262855"/><path d="M49.13 71.706h1.548V50.971h-3.61v20.735h2.063" style="fill:#ed1c24;fill-opacity:1;fill-rule:nonzero;stroke:none;stroke-width:.08262855"/><path id="a" d="M31.254 84.667c.028.23.044.469.044.713 0 .133 0 .287-.016.462 2.057.03 3.86 1.51 3.86 3.215 0 .867-.565 1.52-.884 1.912.071.014.144.031.217.05.3-.262 1.155-1.193 1.155-2.37 0-2.043-2.043-3.94-4.376-3.982zm-2.072 7.118a1.406 1.406 0 0 1-.256.61c.006.209.092.408.427.245-.182-.186-.041-.514-.041-.514s.371.171.294.416c.551-.132.156-.87-.424-.757zm-.477-1.05c-.075.307-.23.619-.43.855-.182.214-.482.47-.885.47-.186 0-.495-.087-.691-.17-.075.133-.218.457-.218.602 0 .15.252.302.736.302 1.064 0 1.702-.48 1.702-1.288 0-.284-.113-.542-.214-.77zm2.733-13.722c.124 0 .185-.02.256-.046.307-.835 1.488-2.407 1.537-2.475l.011-.013.018.004c.29.046 1.029.158 1.648.158h.015c.067 0 .142 0 .192-.048.039-.04.06-.11.06-.21 0-.155-.066-.418-.144-.53-.216.237-.57.343-1.132.343-.17 0-.37-.051-.477-.08l-.045-.01-.05-.012.325-.326c.501-.5.934-.934.934-1.221 0-.174-.169-.399-.324-.5-.033.529-.567 1.232-1.085 1.628l-.044.033-.01-.184c-.006-.127-.018-.317-.018-.518 0-1.005-.101-1.156-.45-1.156a.615.615 0 0 0-.185.034c.196.242.273.562.273 1.123l-.003.26-.003.208c0 .23.025.4.043.537l.01.078-.055.007a5.581 5.581 0 0 1-.696.064c-.497 0-.832-.046-1.077-.275-.16.13-.325.354-.325.495 0 .21.13.226.3.226.087 0 .168-.012.28-.025.213-.032.534-.08 1.195-.08h.041l-.012.041c-.168.48-.628 1.176-1.367 2.073.068.24.133.397.364.397zm-6.37-2.47-.012-.04h.04c.661 0 .983.047 1.196.079.112.013.193.025.279.025.17 0 .301-.016.301-.226 0-.141-.165-.366-.325-.495-.245.23-.581.275-1.077.275-.231 0-.534-.041-.696-.064l-.027-.003-.028-.004.009-.078c.02-.137.043-.307.043-.537l-.003-.209-.003-.259c0-.56.078-.881.274-1.122a.615.615 0 0 0-.186-.035c-.349 0-.45.151-.45 1.156 0 .201-.01.391-.018.518l-.01.185-.044-.034c-.517-.395-1.052-1.1-1.083-1.628-.156.101-.325.326-.325.5 0 .287.433.72.934 1.221l.289.288.035.038-.094.023a2.07 2.07 0 0 1-.477.079c-.564 0-.915-.106-1.132-.343-.078.112-.143.375-.143.53 0 .1.02.17.058.21.05.048.126.048.193.048h.014c.62 0 1.36-.112 1.649-.158l.018-.004.01.014c.05.067 1.231 1.64 1.538 2.474.07.026.132.046.255.046.232 0 .297-.157.364-.397-.739-.897-1.198-1.594-1.365-2.073zm-3.19 14.106c0 1.177.855 2.108 1.157 2.37.071-.019.144-.036.216-.05-.32-.392-.884-1.045-.884-1.912 0-1.721 1.839-3.215 3.92-3.215a6.123 6.123 0 0 1 .02-1.175c-2.355.014-4.428 1.924-4.428 3.982zm15.793-3.625c1.055-1.67 1.882-1.64 3.13-1.64-1.033.79-1.716 1.804-2.041 2.323l-1.93 3.087a4.575 4.575 0 0 1-1.42 2.507c.249.094.454.193.58.287-1.26 0-2.51.64-3.196.64-.442 0-.726-.264-.726-.613.03-.388.429-.785 1.169-.785.167 0 .382.022.616.061.402-.558.724-1.062.724-1.782 0-1.351-1.616-2.405-3.248-2.405-.091 0-.18.004-.271.011-.149.335-.64.897-.64 1.538 0 1.072.7 1.95.7 3.014 0 .661-.322 1.07-.446 1.24.201.185.42.415.472.57-.117-.05-.255-.056-.457-.056-.782 0-1.42.204-2.04.204-.355 0-.45-.11-.45-.214a.23.23 0 0 1 .016-.096 2.116 2.116 0 0 1-.405.113c-.183.035-.38.052-.59.052-.755 0-1.024-.316-1.024-.588 0-.23.181-.648.385-.967.295.148.649.249.81.249.4 0 .758-.382.947-.835-.27-.032-.322-.045-.595-.045-.735 0-1.235.264-1.338.264-.01 0-.03-.005-.03-.021 0-.104.208-.376.62-.527.54-.197 1.352-.28 1.488-.301 0-.024-.138-.281-.291-.33a.158.158 0 0 0-.096-.003c-.566.112-.723.158-1.44.431-.023.008-.035-.005-.035-.028 0-.284.734-.91 1.392-1.15-.55-.702-1.237-1.42-1.56-2.514a3.317 3.317 0 0 0-.272-.01c-1.631 0-3.247 1.053-3.247 2.404 0 .72.323 1.224.723 1.782.236-.039.45-.061.617-.061.74 0 1.14.397 1.17.785 0 .35-.285.612-.728.612-.686 0-1.934-.64-3.195-.64.125-.093.33-.192.579-.286a4.574 4.574 0 0 1-1.42-2.507l-1.929-3.087c-.324-.519-1.01-1.533-2.043-2.324 1.249 0 2.076-.028 3.132 1.642l.99 1.584c.073-.206.163-.406.27-.602l-1.968-3.148c-.327-.522-1.005-1.528-2.042-2.324 1.247 0 2.076-.029 3.13 1.64l1.695 2.712a6.17 6.17 0 0 1 .4-.392l-2.39-3.827c-.328-.522-1.003-1.524-2.042-2.321 1.248 0 2.076-.03 3.132 1.64l2.33 3.73c.153-.097.31-.191.473-.279l-2.843-4.55c-.33-.524-1.004-1.524-2.043-2.323 1.249 0 2.076-.028 3.132 1.64l2.928 4.689c.174-.068.349-.13.527-.188L22.21 77.41c-.324-.516-1.013-1.533-2.042-2.321 1.25 0 2.076-.028 3.132 1.64l3.527 5.644c.036-.006.071-.011.106-.019.096-.305.163-.59.163-.873 0-1.774-1.164-3.34-2.56-4.55.088-.039.244-.051.389-.051.288 0 .474.014.605.037-.325-.734-1.02-1.685-1.37-2.176-.457.082-1.123.147-1.559.147-.455 0-.507-.268-.507-.506 0-.414.193-.743.42-.927.083.212.254.495 1.097.495l.084-.005c-.247-.274-1.017-.897-1.017-1.398 0-.332.364-.83.845-.83-.03.106-.026.205-.026.279 0 .407.36.883.664 1.214-.008-.1-.004-.09-.004-.203 0-.962.088-1.403.697-1.403.3 0 .506.163.577.213-.397.365-.417.652-.417 1.19l.003.467c.002.123 0 .286-.02.404.218.03.307.03.474.03 0 0 .867.068 1.076-.381.235.215.576.52.576.855 0 .222-.105.472-.551.472-.17 0-.701-.104-1.145-.104.119.267.651 1.045 1.112 1.609.07-.22.178-.456.42-.65.033.364.246 1.512.813 2.183.067-.454.156-.92.156-1.9 0-2.387-.574-4.15-1.793-4.487.158-.276.494-.523.842-.523.445 0 .69.503.936.978.13-.35.485-1.21.843-1.21.356 0 .712.86.841 1.21.248-.475.49-.978.937-.978.346 0 .683.247.841.523-1.218.337-1.793 2.1-1.793 4.487 0 .98.09 1.446.155 1.9.57-.671.782-1.82.815-2.182.24.193.35.43.42.649.46-.564.992-1.342 1.112-1.609-.444 0-.976.104-1.146.104-.445 0-.55-.25-.55-.472 0-.336.341-.64.576-.855.208.45 1.076.381 1.076.381.168 0 .255 0 .474-.03a2.607 2.607 0 0 1-.02-.404l.002-.467c0-.538-.02-.825-.416-1.19.071-.05.278-.213.577-.213.61 0 .697.441.697 1.403 0 .114.004.103-.004.203.304-.331.663-.807.663-1.214 0-.074.005-.173-.025-.28.481 0 .846.499.846.83 0 .502-.77 1.125-1.018 1.4l.084.004c.843 0 1.013-.283 1.098-.495a1.2 1.2 0 0 1 .418.927c0 .238-.05.506-.507.506-.435 0-1.1-.065-1.558-.147-.351.491-1.046 1.442-1.37 2.176.13-.023.317-.037.606-.037.144 0 .299.012.388.052-1.396 1.208-2.56 2.775-2.56 4.549 0 .284.067.568.162.873.035.008.072.013.107.02l3.527-5.645c1.055-1.668 1.883-1.64 3.13-1.64-1.027.788-1.718 1.805-2.04 2.321l-3.31 5.296c.18.058.356.12.529.188l2.928-4.688c1.056-1.67 1.883-1.641 3.132-1.641-1.039.799-1.713 1.8-2.042 2.323l-2.843 4.55c.16.088.319.182.472.28l2.33-3.73c1.056-1.671 1.884-1.641 3.13-1.641-1.038.797-1.712 1.799-2.041 2.321l-2.39 3.827c.141.125.275.258.4.392l1.694-2.712c1.057-1.669 1.883-1.64 3.132-1.64-1.037.796-1.714 1.802-2.041 2.324l-1.968 3.148c.105.196.196.396.269.602l.99-1.584" style="fill:#231f20;fill-opacity:1;fill-rule:nonzero;stroke:none;stroke-width:.08262855"/><path d="M50.678 92.237V71.604h-3.61v20.633h3.61" style="fill:#231f20;fill-opacity:1;fill-rule:nonzero;stroke:none;stroke-width:.08262855"/><use xlink:href="#a" id="b" width="100%" height="100%" x="0" y="0"/></g></svg>