<svg width="148" height="144" viewBox="0 0 148 144" fill="none" xmlns="http://www.w3.org/2000/svg">
<path d="M147.767 73.7671C147.767 114.509 122.975 111.88 82.2329 111.88C73.1768 111.88 56.2713 145.901 48.2578 142.916H48.2553C47.9602 142.808 47.6676 142.695 47.375 142.58C47.2914 142.55 47.2078 142.518 47.1267 142.484C46.6669 142.307 46.2095 142.122 45.7546 141.933C44.8178 141.544 43.8907 141.136 42.976 140.713C42.5015 140.492 42.0294 140.268 41.5622 140.037C37.2247 137.91 33.1257 135.368 29.3168 132.464C27.3989 131.003 25.5522 129.447 23.7892 127.809C22.3286 126.452 20.9246 125.038 19.582 123.567C19.1591 123.107 18.746 122.643 18.3378 122.173C18.1706 121.984 18.0083 121.794 17.8485 121.605C16.6904 120.25 15.5838 118.851 14.5265 117.413C14.1847 116.948 13.8479 116.478 13.5159 116.004C11.2611 112.783 9.25709 109.37 7.53093 105.799C2.85409 96.1112 0.23291 85.2453 0.23291 73.7671C0.232915 33.0255 33.2585 0 74 0C114.742 0 147.767 33.0255 147.767 73.7671Z" fill="#FFA070"/>
<path d="M110.026 144H70.6064C64.694 144 59.8839 139.19 59.8839 133.277V29.0711C59.8839 23.1587 64.694 18.3486 70.6064 18.3486H110.026C115.938 18.3486 120.748 23.1587 120.748 29.0711C121.482 70.9171 122.733 117.778 120.748 133.277C120.748 139.19 115.938 144 110.026 144Z" fill="#4A2F6D"/>
<path d="M121.298 56.6791C121.048 56.6791 120.844 56.8825 120.844 57.1327V71.6484C120.844 71.8985 121.048 72.102 121.298 72.102C121.548 72.102 121.751 71.8986 121.751 71.6484V57.1327C121.751 56.8825 121.548 56.6791 121.298 56.6791Z" fill="#4A2F6D"/>
<path d="M117.042 30.3793L119.727 133.276C119.727 138.422 115.722 142.631 110.657 142.958H110.655C110.58 142.962 110.505 142.967 110.428 142.969C110.295 142.976 110.161 142.978 110.025 142.978C110.025 142.978 109.526 142.942 108.614 142.874C107.693 142.806 106.353 142.704 104.681 142.57C104.18 142.532 103.651 142.488 103.093 142.443C101.982 142.352 100.762 142.253 99.4531 142.139C98.9315 142.096 98.3917 142.048 97.8405 142.001C95.0236 141.758 91.8687 141.475 88.5414 141.153C87.9789 141.1 87.4119 141.046 86.8404 140.989C86.6907 140.973 60.9045 134.491 60.9045 133.276V29.0711C60.9045 23.7117 65.2479 19.3683 70.6074 19.3683H76.4C77.3254 19.3683 78.0693 20.0895 78.1487 21.0126C78.1555 21.0739 78.1623 21.1351 78.1737 21.1964C78.3415 22.124 79.192 22.7704 80.1355 22.7704H100.496C101.44 22.7704 102.29 22.124 102.458 21.1964C102.47 21.1351 102.476 21.0739 102.483 21.0126C102.563 20.0895 103.307 19.3683 104.232 19.3683H110.025C115.384 19.3683 117.042 25.0199 117.042 30.3793Z" fill="#FCF9F0"/>
<path d="M59.6571 45.7924C59.4069 45.7924 59.2035 45.9958 59.2035 46.246V49.8749C59.2035 50.1251 59.4069 50.3285 59.6571 50.3285C59.9073 50.3285 60.1107 50.1251 60.1107 49.8749V46.246C60.1107 45.9958 59.9073 45.7924 59.6571 45.7924Z" fill="#4A2F6D"/>
<path d="M59.6571 56.6791C59.4069 56.6791 59.2035 56.8825 59.2035 57.1327V64.1637C59.2035 64.4139 59.4069 64.6173 59.6571 64.6173C59.9073 64.6173 60.1107 64.4139 60.1107 64.1637V57.1327C60.1107 56.8825 59.9073 56.6791 59.6571 56.6791Z" fill="#4A2F6D"/>
<path d="M59.6571 66.6585C59.4069 66.6585 59.2035 66.8619 59.2035 67.1121V74.1432C59.2035 74.3933 59.4069 74.5968 59.6571 74.5968C59.9073 74.5968 60.1107 74.3933 60.1107 74.1432V67.1121C60.1107 66.862 59.9073 66.6585 59.6571 66.6585Z" fill="#4A2F6D"/>
<path d="M76.2512 20.9568H67.5583C67.5161 20.9568 67.482 20.991 67.482 21.0331V22.0146C67.482 22.0567 67.5161 22.0909 67.5583 22.0909H76.2512C76.2933 22.0909 76.3275 22.0567 76.3275 22.0146V21.0331C76.3275 20.991 76.2933 20.9568 76.2512 20.9568Z" fill="#917BAD"/>
<path d="M105.665 22.0909C106.166 22.0909 106.573 21.6847 106.573 21.1837C106.573 20.6826 106.166 20.2764 105.665 20.2764C105.164 20.2764 104.758 20.6826 104.758 21.1837C104.758 21.6847 105.164 22.0909 105.665 22.0909Z" fill="#917BAD"/>
<path d="M108.16 22.0909C108.661 22.0909 109.067 21.6847 109.067 21.1837C109.067 20.6826 108.661 20.2764 108.16 20.2764C107.659 20.2764 107.253 20.6826 107.253 21.1837C107.253 21.6847 107.659 22.0909 108.16 22.0909Z" fill="#917BAD"/>
<path d="M110.655 22.0909C111.156 22.0909 111.562 21.6847 111.562 21.1837C111.562 20.6826 111.156 20.2764 110.655 20.2764C110.154 20.2764 109.748 20.6826 109.748 21.1837C109.748 21.6847 110.154 22.0909 110.655 22.0909Z" fill="#917BAD"/>
<path d="M89.3639 73.0818C96.4933 73.0818 102.273 67.3023 102.273 60.1729C102.273 53.0435 96.4933 47.2639 89.3639 47.2639C82.2344 47.2639 76.4549 53.0435 76.4549 60.1729C76.4549 67.3023 82.2344 73.0818 89.3639 73.0818Z" fill="#917BAD"/>
<path d="M90.1376 108.817H32.6691C30.3556 108.817 28.4735 106.935 28.4735 104.621V61.1657C28.4735 58.8524 30.3556 56.9701 32.6691 56.9701H90.1376C92.4511 56.9701 94.3332 58.8524 94.3332 61.1657V104.621C94.3332 106.935 92.4511 108.817 90.1376 108.817Z" fill="#FCF9F0"/>
<path d="M90.1376 108.817H32.6691C30.3556 108.817 28.4735 106.935 28.4735 104.621V61.1657C28.4735 58.8524 30.3556 56.9701 32.6691 56.9701H90.1376C92.4511 56.9701 94.3332 58.8524 94.3332 61.1657V104.621C94.3332 106.935 92.4511 108.817 90.1376 108.817ZM32.6691 57.6707C30.742 57.6707 29.1741 59.2386 29.1741 61.1657V104.621C29.1741 106.549 30.742 108.116 32.6691 108.116H90.1376C92.0647 108.116 93.6326 106.549 93.6326 104.621V61.1657C93.6326 59.2386 92.0647 57.6707 90.1376 57.6707H32.6691Z" fill="#4A2F6D"/>
<path d="M83.8235 62.2249C84.404 62.2249 84.8745 61.7544 84.8745 61.1739C84.8745 60.5935 84.404 60.123 83.8235 60.123C83.2431 60.123 82.7726 60.5935 82.7726 61.1739C82.7726 61.7544 83.2431 62.2249 83.8235 62.2249Z" fill="#4A2F6D"/>
<path d="M86.6262 62.2249C87.2066 62.2249 87.6771 61.7544 87.6771 61.1739C87.6771 60.5935 87.2066 60.123 86.6262 60.123C86.0457 60.123 85.5752 60.5935 85.5752 61.1739C85.5752 61.7544 86.0457 62.2249 86.6262 62.2249Z" fill="#4A2F6D"/>
<path d="M89.4286 62.2249C90.0091 62.2249 90.4796 61.7544 90.4796 61.1739C90.4796 60.5935 90.0091 60.123 89.4286 60.123C88.8482 60.123 88.3777 60.5935 88.3777 61.1739C88.3777 61.7544 88.8482 62.2249 89.4286 62.2249Z" fill="#4A2F6D"/>
<path d="M34.4289 78.1644C34.1392 78.1644 33.9034 78.4001 33.9034 78.6898C33.9034 78.8311 33.958 78.9618 34.057 79.0583C34.1569 79.1606 34.2878 79.2153 34.4289 79.2153H88.7281C89.0179 79.2153 89.2536 78.9796 89.2536 78.6898C89.2536 78.5486 89.199 78.4179 89.1 78.3214C89.0001 78.2191 88.8692 78.1644 88.7281 78.1644H34.4289Z" fill="#917BAD"/>
<path d="M78.9191 77.9891V79.3904H34.4288C34.2361 79.3904 34.0609 79.3133 33.9348 79.1837C33.8052 79.0576 33.7281 78.8824 33.7281 78.6898C33.7281 78.3044 34.0434 77.9891 34.4288 77.9891L78.9191 77.9891Z" fill="#917BAD"/>
<path d="M87.8523 75.3618H80.846C80.0733 75.3618 79.4447 74.7334 79.4447 73.9605C79.4447 73.1877 80.0733 72.5593 80.846 72.5593H87.8523C88.625 72.5593 89.2536 73.1877 89.2536 73.9605C89.2536 74.7334 88.625 75.3618 87.8523 75.3618Z" fill="#917BAD"/>
<path d="M41.9607 68.0051H34.9543C34.1817 68.0051 33.553 67.3766 33.553 66.6038C33.553 65.831 34.1817 65.2025 34.9543 65.2025H41.9607C42.7333 65.2025 43.3619 65.831 43.3619 66.6038C43.3619 67.3766 42.7333 68.0051 41.9607 68.0051Z" fill="#917BAD"/>
<path d="M34.4289 93.9286C34.1392 93.9286 33.9034 94.1644 33.9034 94.4541C33.9034 94.5954 33.958 94.7261 34.057 94.8226C34.1569 94.9249 34.2878 94.9796 34.4289 94.9796H88.7281C89.0179 94.9796 89.2536 94.7439 89.2536 94.4541C89.2536 94.3128 89.199 94.1822 89.1 94.0857C89.0001 93.9834 88.8692 93.9286 88.7281 93.9286H34.4289Z" fill="#917BAD"/>
<path d="M51.9447 93.7534V95.1547H34.4288C34.2361 95.1547 34.0609 95.0776 33.9348 94.948C33.8052 94.8219 33.7281 94.6467 33.7281 94.4541C33.7281 94.0687 34.0434 93.7534 34.4288 93.7534L51.9447 93.7534Z" fill="#917BAD"/>
<path d="M87.8523 91.1261H80.846C80.0733 91.1261 79.4447 90.4976 79.4447 89.7248C79.4447 88.952 80.0733 88.3235 80.846 88.3235H87.8523C88.625 88.3235 89.2536 88.952 89.2536 89.7248C89.2536 90.4976 88.625 91.1261 87.8523 91.1261Z" fill="#917BAD"/>
</svg>
