<svg width="100" height="144" viewBox="0 0 100 144" fill="none" xmlns="http://www.w3.org/2000/svg">
<path d="M7.21872 0.000234618H61.205C63.8101 0.000230986 66.3377 0.886561 68.3723 2.51353C70.4069 4.1405 71.8275 6.41129 72.4004 8.95263L99.6786 129.947C99.9761 131.266 99.9814 132.635 99.694 133.957C99.4065 135.279 98.8334 136.522 98.0148 137.599C97.1962 138.676 96.1518 139.561 94.955 140.192C93.7582 140.823 92.4379 141.184 91.0867 141.251L35.5885 143.985C32.6167 144.132 29.6932 143.192 27.3635 141.341C25.0337 139.49 23.4569 136.855 22.9273 133.927L7.45347 48.3832L6.30229 48.7122L3.3415 32.4984L4.52649 32.2021L0.207199 8.32368C0.0221943 7.30092 0.0650982 6.24994 0.332851 5.24567C0.600603 4.24139 1.08661 3.30855 1.75623 2.51364C2.42584 1.71873 3.26258 1.08134 4.20678 0.646893C5.15098 0.212447 6.1794 -0.0083573 7.21872 0.000234618Z" fill="#4A2F6D"/>
<path d="M54.0978 2.60855H60.3996C62.2093 2.60855 63.9647 3.2275 65.3742 4.36263C66.7837 5.49777 67.7626 7.08082 68.1484 8.84899L94.3317 128.856C94.4824 129.547 94.4823 130.262 94.3312 130.953C94.1802 131.644 93.8819 132.294 93.4565 132.859C93.0312 133.424 92.489 133.89 91.8668 134.227C91.2447 134.563 90.5573 134.761 89.8517 134.807L34.5329 138.433C32.9723 138.535 31.4287 138.059 30.1966 137.096C28.9644 136.133 28.1302 134.749 27.8529 133.21L5.51053 9.17135C5.36592 8.36852 5.39927 7.54373 5.60823 6.7552C5.81719 5.96666 6.19666 5.2336 6.71986 4.60773C7.24307 3.98187 7.89726 3.47846 8.63626 3.13303C9.37526 2.7876 10.1811 2.60857 10.9968 2.60856H16.9751C17.5537 2.60856 18.1162 2.79931 18.5754 3.15127C19.0347 3.50323 19.3651 3.99678 19.5155 4.55549C19.6483 5.04874 19.94 5.48445 20.3455 5.79517C20.7509 6.10589 21.2475 6.27429 21.7583 6.27429H50.1392C51.1395 6.27429 52.1029 5.89673 52.8368 5.21711C53.5707 4.53748 54.021 3.60586 54.0978 2.60855Z" fill="#FCF9F0"/>
<path d="M9.81482 23.013H69.8277L76.221 51.8204L15.424 52.9423L9.81482 23.013Z" fill="#FFA070"/>
<path d="M66.8041 77.5675H80.9327L81.3814 80.2722H67.2528L66.8041 77.5675Z" fill="#C8E4DA"/>
<path d="M78.2996 63.7694L18.379 65.0383L18.3849 65.3203L78.3055 64.0514L78.2996 63.7694Z" fill="#4A2F6D"/>
<path d="M80.1321 72.0878L19.0836 73.4977L19.0901 73.7797L80.1387 72.3698L80.1321 72.0878Z" fill="#4A2F6D"/>
<path d="M72.6376 106.511H86.7663L87.215 109.216H73.0864L72.6376 106.511Z" fill="#C8E4DA"/>
<path d="M84.1331 92.7128L24.2125 93.9817L24.2185 94.2637L84.1391 92.9948L84.1331 92.7128Z" fill="#4A2F6D"/>
<path d="M85.9657 101.031L24.9172 102.441L24.9237 102.723L85.9722 101.313L85.9657 101.031Z" fill="#4A2F6D"/>
</svg>
