<svg width="190" height="144" viewBox="0 0 190 144" fill="none" xmlns="http://www.w3.org/2000/svg">
<path d="M74.0151 6.58045C73.9365 6.58035 73.8583 6.59045 73.7822 6.61046L7.35953 23.788C7.15816 23.8401 6.97977 23.9577 6.85245 24.1222C6.72512 24.2867 6.65603 24.4888 6.65601 24.6968V112.933C6.65678 113.147 6.7309 113.356 6.86606 113.523C7.00121 113.69 7.1893 113.806 7.39927 113.851L117.056 137.182C117.215 137.216 117.38 137.208 117.535 137.159L182.686 116.586C182.878 116.526 183.046 116.405 183.164 116.243C183.282 116.08 183.344 115.883 183.342 115.682L182.612 25.1894C182.61 24.968 182.53 24.7543 182.386 24.5862C182.242 24.4181 182.043 24.3064 181.825 24.2708L74.1668 6.59267C74.1167 6.58465 74.0659 6.58057 74.0151 6.58045Z" fill="#C8E4DA"/>
<path d="M189.19 25.1367C189.179 23.3639 188.54 21.6524 187.388 20.3056C186.235 18.9589 184.642 18.0639 182.892 17.7795L75.2341 0.100734C74.2018 -0.0701729 73.1451 -0.0232112 72.132 0.238595L46.9017 6.7624L32.4253 10.5099L5.70972 17.416C4.09699 17.8348 2.6689 18.7771 1.64931 20.0949C0.629724 21.4128 0.07631 23.0318 0.0758667 24.6981V112.935C0.0838976 114.655 0.678166 116.321 1.76057 117.657C2.84297 118.994 4.34876 119.921 6.02935 120.286L115.687 143.618C116.201 143.728 116.727 143.783 117.253 143.781C118.021 143.782 118.784 143.666 119.516 143.436L184.666 122.862C186.203 122.382 187.545 121.419 188.492 120.117C189.44 118.814 189.941 117.241 189.924 115.63L189.19 25.1367ZM184.102 121.07L118.952 141.644C118.022 141.933 117.034 141.981 116.081 141.781L6.41787 118.45C5.15782 118.175 4.02913 117.479 3.21795 116.477C2.40676 115.474 1.96159 114.225 1.95591 112.935V24.6981C1.95673 23.5433 2.31164 22.4164 2.97278 21.4695C3.63392 20.5227 4.56948 19.8012 5.65336 19.4026C5.82547 19.338 6.00126 19.2836 6.17976 19.2397L34.4433 11.9326L51.1569 7.60844L72.602 2.06228C73.0619 1.93954 73.5361 1.8784 74.0121 1.88051C74.3186 1.88039 74.6246 1.90555 74.927 1.95571L182.585 19.6345C183.451 19.7767 184.273 20.1185 184.984 20.633C185.696 21.1475 186.277 21.8205 186.684 22.5988C187.09 23.3878 187.305 24.2617 187.31 25.1493L188.044 115.643C188.057 116.851 187.681 118.031 186.971 119.009C186.261 119.986 185.255 120.709 184.102 121.07Z" fill="#4A2F6D"/>
<path d="M186.684 22.5988C186.611 22.6468 186.53 22.6827 186.446 22.7053L154.779 31.2657L144.921 33.9292L116.884 41.5057C116.804 41.5254 116.722 41.5359 116.639 41.5371C116.583 41.536 116.526 41.5319 116.47 41.5245L3.41612 20.9129L3.04012 20.844C2.79504 20.7982 2.57809 20.6571 2.43674 20.4517C2.29539 20.2463 2.24113 19.9933 2.28588 19.748C2.33063 19.5027 2.47071 19.2852 2.67549 19.1429C2.88026 19.0007 3.13309 18.9453 3.37856 18.989L5.65342 19.4026L116.602 39.632L140.767 33.1019L154.284 29.4483L185.462 21.0194L185.957 20.8879C186.171 20.8314 186.398 20.852 186.598 20.9459C186.799 21.0398 186.96 21.2011 187.053 21.4017C187.078 21.4496 187.097 21.5001 187.11 21.5521C187.161 21.7492 187.148 21.9577 187.071 22.1464C186.994 22.3351 186.858 22.4938 186.684 22.5988Z" fill="#4A2F6D"/>
<path d="M117.579 144C117.331 144 117.094 143.902 116.918 143.728C116.741 143.553 116.641 143.316 116.639 143.069L115.699 40.6056C115.697 40.3563 115.794 40.1164 115.968 39.9385C116.143 39.7606 116.381 39.6594 116.631 39.657H116.639C116.887 39.657 117.125 39.7549 117.301 39.9293C117.477 40.1038 117.577 40.3407 117.579 40.5885L118.519 143.051C118.521 143.301 118.425 143.541 118.25 143.719C118.075 143.896 117.837 143.998 117.588 144H117.579Z" fill="#4A2F6D"/>
<path d="M154.779 131.535L144.921 134.199L140.766 33.1019L34.7503 12.0077C34.6464 11.9893 34.5438 11.9642 34.4432 11.9325C33.6288 11.7006 32.9172 11.199 32.4252 10.5099L46.9016 6.76242L51.1568 7.60843L151.752 27.6185C152.281 27.7229 152.781 27.9406 153.218 28.2564C153.655 28.5723 154.019 28.9789 154.284 29.4484C154.597 29.9936 154.773 130.884 154.779 131.535Z" fill="#4A2F6D"/>
<path d="M44.778 87.2039C44.6608 87.2037 44.5441 87.1907 44.4298 87.1649L11.8243 79.8023C11.4166 79.7098 11.0623 79.4592 10.8392 79.1056C10.6161 78.752 10.5424 78.3243 10.6344 77.9164C10.7264 77.5086 10.9765 77.1539 11.3298 76.9304C11.6831 76.7068 12.1107 76.6326 12.5187 76.724L45.1241 84.0865C45.5027 84.1721 45.8364 84.3941 46.0616 84.7102C46.2868 85.0262 46.3876 85.4142 46.3448 85.8C46.3019 86.1857 46.1184 86.5421 45.8294 86.8011C45.5404 87.06 45.1661 87.2035 44.778 87.2039Z" fill="#917BAD"/>
</svg>
